<?xml version="1.0" standalone="no"?>
<!DOCTYPE svg PUBLIC "-//W3C//DTD SVG 20010904//EN"
 "http://www.w3.org/TR/2001/REC-SVG-20010904/DTD/svg10.dtd">
<svg version="1.0" xmlns="http://www.w3.org/2000/svg"
 width="136.000000pt" height="136.000000pt" viewBox="0 0 136.000000 136.000000"
 preserveAspectRatio="xMidYMid meet">
<metadata>
Created by potrace 1.14, written by Peter Selinger 2001-2017
</metadata>
<g transform="translate(0.000000,136.000000) scale(0.100000,-0.100000)"
fill="#000000" stroke="none">
<path d="M995 1235 c-85 -26 -116 -45 -177 -106 -90 -92 -139 -206 -143 -334
-2 -44 -6 -88 -9 -97 -3 -10 -9 -26 -12 -35 -4 -12 -12 3 -24 45 -35 124 -126
218 -255 262 -59 20 -212 38 -268 32 -29 -3 -29 -4 -22 -59 27 -234 193 -385
425 -387 30 0 70 3 88 7 l34 7 -7 -48 c-4 -26 -7 -91 -6 -145 0 -91 -1 -97
-17 -88 -23 12 -77 4 -117 -16 -16 -9 -69 -55 -117 -103 l-88 -88 395 -1 c217
-1 395 2 395 7 0 12 -50 39 -88 47 -18 4 -45 20 -60 37 -86 94 -95 100 -137
94 -22 -3 -52 -8 -67 -12 -23 -5 -29 -2 -37 17 -12 32 -12 273 0 330 20 97 14
89 77 89 274 1 448 161 508 468 17 89 17 88 2 90 -117 11 -209 7 -273 -13z"/>
</g>
</svg>
